<svg class="w-full h-full" viewBox="0 0 124 78"
                                fill="none" xmlns="http://www.w3.org/2000/svg">
                                <path
                                    d="M35.0713 26.2724C39.2882 25.5223 43.4294 24.6966 47.5959 24.0725C53.8677 23.1397 59.7108 20.839 65.6485 18.7841C69.0081 17.6243 72.5191 16.7229 76.0363 16.2754C78.5324 15.9539 81.1672 16.4771 83.7074 16.8301C85.3148 17.057 85.34 17.3154 85.0059 19.1182C79.5851 17.5928 74.1895 17.8638 68.8254 19.4648C74.2462 18.5698 79.6481 18.0277 84.9492 20.2528C84.2243 23.7007 82.4972 26.3985 79.8876 28.5164C76.2002 31.5041 71.977 33.3195 67.2432 33.5779C61.148 33.912 56.6474 31.0125 53.3823 26.0392C52.9033 25.308 52.4179 25.037 51.5733 25.0748C48.2325 25.2135 45.0494 25.9446 41.9734 27.2557C40.5929 27.8482 39.1621 28.384 37.6997 28.7055C35.8844 29.1278 35.0839 28.321 35.0713 26.2724Z"
                                    fill="#F54748" />
                                <path
                                    d="M57.4732 20.3155C56.9311 18.601 56.5088 16.2184 57.7127 14.34C58.1476 13.6592 58.5132 13.4827 58.9103 12.9091C59.6856 11.7745 60.1521 9.68814 58.4313 5.50276C59.0238 5.92508 59.8054 6.60583 60.3411 7.65218C60.9526 8.8435 60.8706 9.76377 61.0597 10.7597C61.2803 11.9384 61.9422 13.5395 63.9277 15.2981C63.7197 14.6551 63.4991 13.7601 63.4487 12.6696C63.4045 11.598 63.5369 10.6904 63.6882 10.0411C63.9151 10.703 64.2807 11.5476 64.8858 12.4301C65.2892 13.0163 65.7052 13.489 66.0834 13.8609C65.5603 13.0919 64.8669 11.8817 64.4131 10.2743C64.0664 9.04521 63.6882 6.99033 64.1736 4.53835C64.5896 2.43936 65.472 0.895067 66.0834 0C66.0393 0.769001 66.0582 2.23766 66.802 3.81979C67.9429 6.25916 70.023 7.33702 70.6218 7.63958C72.122 8.39597 72.4309 7.98626 75.3997 8.8372C77.7193 9.49905 78.8791 9.83312 79.9381 10.7471C80.5432 11.264 81.9488 12.6885 82.327 15.7645C80.9655 15.5376 79.125 15.3359 76.9503 15.4052C74.5173 15.4809 72.6893 15.8591 71.4538 16.1238C69.5629 16.5272 68.0438 17.0315 65.0056 18.0337C63.2407 18.6199 61.98 19.08 59.7486 19.7041C58.7968 19.9814 58.0089 20.1831 57.4732 20.3155Z"
                                    fill="#FDC55E" />
                                <path
                                    d="M72.393 15.6889C72.4245 15.7897 73.8113 15.235 75.7401 14.9703C78.0345 14.6551 80.02 14.8947 81.4761 15.2098C81.4887 14.1635 81.1924 13.4386 80.997 13.0604C80.4865 12.0582 79.6985 11.5035 78.8476 10.911C78.1857 10.4445 77.587 10.142 77.1772 9.95288C77.7319 10.3878 78.419 11.0118 79.0871 11.8628C79.7805 12.7452 80.228 13.5899 80.518 14.2517C79.5536 14.1004 78.129 13.9807 76.4587 14.2517C74.1958 14.6299 72.3552 15.5754 72.393 15.6889Z"
                                    fill="white" />
                                <path
                                    d="M120.925 70.7337C121.046 71.4119 121.088 72.3349 120.521 72.9875C120.316 73.2221 120.164 73.2731 119.981 73.472C119.619 73.8646 119.33 74.6295 119.781 76.3071C119.572 76.1184 119.304 75.8176 119.147 75.3943C118.968 74.915 119.052 74.5632 119.031 74.1807C119.005 73.7218 118.832 73.0793 118.15 72.3145C118.197 72.5694 118.239 72.9213 118.197 73.3343C118.161 73.7422 118.061 74.0788 117.966 74.3184C117.914 74.0584 117.814 73.7167 117.625 73.3496C117.5 73.1048 117.363 72.906 117.232 72.7428C117.395 73.064 117.604 73.5535 117.699 74.1858C117.772 74.6703 117.809 75.4708 117.494 76.3734C117.222 77.1484 116.797 77.689 116.513 78C116.571 77.7093 116.639 77.1535 116.435 76.5161C116.12 75.532 115.365 75.017 115.144 74.8742C114.599 74.5122 114.457 74.6499 113.345 74.1756C112.474 73.8085 112.039 73.6198 111.672 73.2221C111.462 72.9926 110.99 72.3807 111 71.1977C112.222 69.4232 118.517 69.9331 120.925 70.7337Z"
                                    fill="#F54748" />
                                <path
                                    d="M112.778 44.7034C113.823 44.7034 114.669 43.8567 114.669 42.8124C114.669 41.768 113.823 40.9214 112.778 40.9214C111.734 40.9214 110.887 41.768 110.887 42.8124C110.887 43.8567 111.734 44.7034 112.778 44.7034Z"
                                    stroke="#191919" stroke-width="0.25"
                                    stroke-miterlimit="10" />
                                <path
                                    d="M111.984 41.7282H112.287V43.9029H111.984V41.7282ZM112.116 42.6926H112.86C112.917 42.6926 112.967 42.68 113.012 42.6485C113.056 42.6233 113.094 42.5792 113.112 42.5287C113.138 42.4783 113.15 42.4153 113.15 42.3523C113.15 42.2829 113.138 42.2262 113.112 42.1758C113.087 42.1253 113.056 42.0875 113.012 42.056C112.967 42.0308 112.917 42.0119 112.854 42.0119H112.11V41.7219H112.841C112.967 41.7219 113.075 41.7471 113.175 41.7976C113.276 41.848 113.346 41.9236 113.396 42.0182C113.446 42.1127 113.472 42.2262 113.472 42.3459C113.472 42.472 113.446 42.5792 113.39 42.6737C113.333 42.7683 113.264 42.8439 113.169 42.8943C113.075 42.9448 112.961 42.97 112.841 42.97H112.11V42.6926H112.116ZM112.709 42.9133L113.012 42.8439L113.566 43.9029H113.207L112.709 42.9133Z"
                                    fill="#191919" />
                                <path
                                    d="M28.866 46.896C29.622 46.896 30.24 47.052 30.72 47.364C31.2 47.676 31.44 48.09 31.44 48.606C31.44 49.122 31.224 49.638 30.792 50.154C30.372 50.67 29.82 51.102 29.136 51.45C28.464 51.798 27.774 51.99 27.066 52.026L26.814 51.558C27.438 51.402 27.966 51.096 28.398 50.64C28.842 50.172 29.064 49.692 29.064 49.2C29.064 48.816 28.944 48.51 28.704 48.282C28.476 48.054 28.164 47.94 27.768 47.94C27.072 47.94 26.442 48.21 25.878 48.75C25.326 49.278 24.888 50.01 24.564 50.946C24.252 51.87 24.096 52.914 24.096 54.078C24.096 55.458 24.312 56.55 24.744 57.354C25.188 58.158 25.812 58.56 26.616 58.56C27.108 58.56 27.582 58.374 28.038 58.002C28.494 57.618 28.866 57.12 29.154 56.508C29.442 55.896 29.592 55.266 29.604 54.618L31.854 53.916V61.242L29.658 61.98V56.814H29.55C29.25 57.858 28.74 58.68 28.02 59.28C27.3 59.868 26.484 60.162 25.572 60.162C24.792 60.162 24.102 59.964 23.502 59.568C22.914 59.16 22.452 58.596 22.116 57.876C21.792 57.144 21.63 56.31 21.63 55.374C21.63 53.814 21.948 52.392 22.584 51.108C23.232 49.812 24.108 48.786 25.212 48.03C26.316 47.274 27.534 46.896 28.866 46.896ZM38.2125 51.216C37.4205 51.78 36.7965 52.422 36.3405 53.142C35.8965 53.85 35.6745 54.684 35.6745 55.644C35.6745 56.172 35.7765 56.706 35.9805 57.246C36.1845 57.786 36.4845 58.236 36.8805 58.596C37.2765 58.944 37.7505 59.118 38.3025 59.118C38.9985 59.118 39.5565 58.866 39.9765 58.362C40.4085 57.858 40.6245 57.234 40.6245 56.49C40.6245 55.926 40.4745 55.356 40.1745 54.78C39.8865 54.192 39.4965 53.7 39.0045 53.304C38.5125 52.896 37.9845 52.668 37.4205 52.62C37.6725 52.344 37.9425 52.092 38.2305 51.864C38.5305 51.636 38.9025 51.36 39.3465 51.036C40.2105 51.324 40.8945 51.858 41.3985 52.638C41.9145 53.418 42.1725 54.276 42.1725 55.212C42.1725 56.04 41.9865 56.844 41.6145 57.624C41.2545 58.404 40.7265 59.04 40.0305 59.532C39.3465 60.012 38.5485 60.252 37.6365 60.252C36.8805 60.252 36.1845 60.078 35.5485 59.73C34.9245 59.37 34.4265 58.884 34.0545 58.272C33.6825 57.648 33.4965 56.964 33.4965 56.22C33.4965 54.936 33.8985 53.808 34.7025 52.836C35.5185 51.864 36.5745 51.186 37.8705 50.802L38.2125 51.216ZM46.5216 58.344C46.5216 58.5 46.5576 58.638 46.6296 58.758C46.7136 58.878 46.8396 58.938 47.0076 58.938C47.1756 58.938 47.3436 58.872 47.5116 58.74C47.6916 58.608 47.8356 58.464 47.9436 58.308L48.2676 58.65C48.0636 59.058 47.7636 59.406 47.3676 59.694C46.9836 59.982 46.5696 60.126 46.1256 60.126C44.9616 60.126 44.3796 59.496 44.3796 58.236V44.124L46.5216 43.35V58.344ZM57.3298 58.272C57.3298 58.44 57.3658 58.59 57.4378 58.722C57.5218 58.842 57.6418 58.902 57.7978 58.902C57.9538 58.902 58.1098 58.836 58.2658 58.704C58.4338 58.572 58.5598 58.428 58.6438 58.272L59.0398 58.614C58.8238 59.034 58.5238 59.394 58.1398 59.694C57.7678 59.982 57.3658 60.126 56.9338 60.126C56.3098 60.126 55.8598 59.958 55.5838 59.622C55.3078 59.274 55.1758 58.746 55.1878 58.038H55.0978C54.8218 58.662 54.4618 59.184 54.0178 59.604C53.5738 60.012 53.0398 60.216 52.4158 60.216C51.7558 60.216 51.1918 60.048 50.7238 59.712C50.2558 59.376 49.9018 58.926 49.6618 58.362C49.4218 57.786 49.3018 57.15 49.3018 56.454C49.3018 55.566 49.4818 54.696 49.8418 53.844C50.2138 52.98 50.7478 52.272 51.4438 51.72C52.1398 51.168 52.9498 50.892 53.8738 50.892C54.3418 50.892 54.7678 51.006 55.1518 51.234V44.124L57.3298 43.368V58.272ZM53.8378 52.044C53.2618 52.044 52.7818 52.242 52.3978 52.638C52.0258 53.022 51.7498 53.502 51.5698 54.078C51.3898 54.642 51.2998 55.2 51.2998 55.752C51.2998 56.496 51.4438 57.204 51.7318 57.876C52.0318 58.548 52.4998 58.884 53.1358 58.884C53.9038 58.884 54.4318 58.494 54.7198 57.714C55.0078 56.922 55.1518 56.064 55.1518 55.14V52.638C54.7558 52.242 54.3178 52.044 53.8378 52.044ZM65.2804 50.838C65.9764 50.838 66.5584 51.018 67.0264 51.378C67.4944 51.726 67.7284 52.236 67.7284 52.908C67.7284 53.448 67.4344 54.054 66.8464 54.726C66.2704 55.386 65.5804 56.004 64.7764 56.58C63.9844 57.144 63.3064 57.552 62.7424 57.804C63.2464 58.608 63.9844 59.01 64.9564 59.01C65.4964 59.01 66.0364 58.86 66.5764 58.56C67.1284 58.248 67.5964 57.84 67.9804 57.336L68.3404 57.768C67.7164 58.548 67.0564 59.154 66.3604 59.586C65.6764 60.006 64.8604 60.216 63.9124 60.216C63.1444 60.216 62.4544 60.042 61.8424 59.694C61.2424 59.346 60.7684 58.872 60.4204 58.272C60.0844 57.66 59.9164 56.976 59.9164 56.22C59.9164 55.308 60.1624 54.438 60.6544 53.61C61.1584 52.77 61.8244 52.098 62.6524 51.594C63.4804 51.09 64.3564 50.838 65.2804 50.838ZM64.2544 52.008C63.7984 52.008 63.3904 52.176 63.0304 52.512C62.6704 52.836 62.3884 53.256 62.1844 53.772C61.9804 54.288 61.8784 54.822 61.8784 55.374C61.8784 56.094 62.0344 56.712 62.3464 57.228C62.7904 56.976 63.2584 56.628 63.7504 56.184C64.2544 55.728 64.6744 55.242 65.0104 54.726C65.3464 54.21 65.5144 53.742 65.5144 53.322C65.5144 52.902 65.4004 52.578 65.1724 52.35C64.9564 52.122 64.6504 52.008 64.2544 52.008ZM76.6969 50.838C77.1169 50.838 77.4229 50.964 77.6149 51.216C77.8069 51.456 77.9269 51.744 77.9749 52.08C78.0229 52.404 78.0469 52.824 78.0469 53.34V58.344C78.0469 58.488 78.0889 58.626 78.1729 58.758C78.2689 58.878 78.3829 58.938 78.5149 58.938C78.6949 58.938 78.8509 58.884 78.9829 58.776C79.1269 58.656 79.2769 58.5 79.4329 58.308L79.7389 58.65C79.5229 59.07 79.2229 59.424 78.8389 59.712C78.4669 59.988 78.0649 60.126 77.6329 60.126C77.0569 60.126 76.6249 59.964 76.3369 59.64C76.0489 59.304 75.9049 58.836 75.9049 58.236V53.52C75.9049 53.352 75.8869 53.208 75.8509 53.088C75.8149 52.968 75.7309 52.908 75.5989 52.908C75.1909 52.908 74.7769 53.346 74.3569 54.222C73.9369 55.086 73.5829 56.082 73.2949 57.21C73.0069 58.338 72.8629 59.19 72.8629 59.766L70.7569 60.234V52.674C70.7569 52.494 70.7149 52.344 70.6309 52.224C70.5469 52.104 70.4269 52.044 70.2709 52.044C70.1029 52.044 69.9349 52.116 69.7669 52.26C69.6109 52.392 69.4789 52.548 69.3709 52.728L69.0469 52.368C69.2269 51.948 69.5089 51.588 69.8929 51.288C70.2769 50.988 70.6909 50.838 71.1349 50.838C71.7349 50.838 72.1729 51.006 72.4489 51.342C72.7249 51.666 72.8629 52.122 72.8629 52.71V56.184H72.9349C73.2589 54.852 73.7389 53.628 74.3749 52.512C75.0229 51.396 75.7969 50.838 76.6969 50.838ZM91.8526 46.86C92.6566 46.86 93.3046 47.076 93.7966 47.508C94.2886 47.94 94.5346 48.51 94.5346 49.218C94.5346 49.794 94.3726 50.376 94.0486 50.964C93.7246 51.54 93.2866 52.05 92.7346 52.494C92.1946 52.938 91.5946 53.25 90.9346 53.43L90.6646 52.962C91.1806 52.722 91.5946 52.356 91.9066 51.864C92.2306 51.36 92.3926 50.82 92.3926 50.244C92.3926 49.56 92.2066 49.014 91.8346 48.606C91.4626 48.186 90.9766 47.976 90.3766 47.976C89.7406 47.976 89.1406 48.234 88.5766 48.75C88.0246 49.254 87.5806 49.938 87.2446 50.802C86.9206 51.654 86.7586 52.572 86.7586 53.556C86.7586 54.564 86.9146 55.458 87.2266 56.238C87.5386 57.006 87.9706 57.606 88.5226 58.038C89.0866 58.47 89.7286 58.686 90.4486 58.686C90.9646 58.686 91.4806 58.56 91.9966 58.308C92.5246 58.044 93.0346 57.666 93.5266 57.174L94.0126 57.624C93.4486 58.356 92.7466 58.968 91.9066 59.46C91.0786 59.94 90.2086 60.18 89.2966 60.18C88.3126 60.18 87.4486 59.952 86.7046 59.496C85.9726 59.04 85.4086 58.41 85.0126 57.606C84.6166 56.79 84.4186 55.86 84.4186 54.816C84.4186 53.352 84.7486 52.014 85.4086 50.802C86.0806 49.578 86.9806 48.618 88.1086 47.922C89.2486 47.214 90.4966 46.86 91.8526 46.86ZM98.3758 55.536H98.4478C98.7118 54.372 99.1438 53.298 99.7438 52.314C100.344 51.33 101.082 50.838 101.958 50.838C102.366 50.838 102.666 50.964 102.858 51.216C103.062 51.468 103.188 51.768 103.236 52.116C103.284 52.452 103.308 52.866 103.308 53.358V58.344C103.308 58.488 103.35 58.626 103.434 58.758C103.53 58.878 103.662 58.938 103.83 58.938C104.118 58.938 104.418 58.728 104.73 58.308L105.036 58.65C104.832 59.058 104.538 59.406 104.154 59.694C103.77 59.982 103.35 60.126 102.894 60.126C101.754 60.126 101.184 59.496 101.184 58.236V53.52C101.184 53.364 101.154 53.226 101.094 53.106C101.046 52.974 100.956 52.908 100.824 52.908C100.32 52.908 99.8818 53.328 99.5098 54.168C99.1498 55.008 98.8678 55.98 98.6638 57.084C98.4718 58.188 98.3758 59.082 98.3758 59.766L96.2158 60.234V44.124L98.3758 43.368V55.536ZM111.3 50.838C111.996 50.838 112.578 51.018 113.046 51.378C113.514 51.726 113.748 52.236 113.748 52.908C113.748 53.448 113.454 54.054 112.866 54.726C112.29 55.386 111.6 56.004 110.796 56.58C110.004 57.144 109.326 57.552 108.762 57.804C109.266 58.608 110.004 59.01 110.976 59.01C111.516 59.01 112.056 58.86 112.596 58.56C113.148 58.248 113.616 57.84 114 57.336L114.36 57.768C113.736 58.548 113.076 59.154 112.38 59.586C111.696 60.006 110.88 60.216 109.932 60.216C109.164 60.216 108.474 60.042 107.862 59.694C107.262 59.346 106.788 58.872 106.44 58.272C106.104 57.66 105.936 56.976 105.936 56.22C105.936 55.308 106.182 54.438 106.674 53.61C107.178 52.77 107.844 52.098 108.672 51.594C109.5 51.09 110.376 50.838 111.3 50.838ZM110.274 52.008C109.818 52.008 109.41 52.176 109.05 52.512C108.69 52.836 108.408 53.256 108.204 53.772C108 54.288 107.898 54.822 107.898 55.374C107.898 56.094 108.054 56.712 108.366 57.228C108.81 56.976 109.278 56.628 109.77 56.184C110.274 55.728 110.694 55.242 111.03 54.726C111.366 54.21 111.534 53.742 111.534 53.322C111.534 52.902 111.42 52.578 111.192 52.35C110.976 52.122 110.67 52.008 110.274 52.008ZM120.808 43.224C121.276 43.224 121.768 43.368 122.284 43.656C122.8 43.932 123.208 44.304 123.508 44.772L121.834 45.69C121.678 45.21 121.45 44.82 121.15 44.52C120.862 44.208 120.514 44.052 120.106 44.052C119.566 44.052 119.182 44.256 118.954 44.664C118.738 45.072 118.63 45.546 118.63 46.086V51H121.924L121.366 52.188H118.63V62.376L116.47 63.276V52.188H115.246L115.75 51H116.47V48.57C116.47 47.646 116.608 46.782 116.884 45.978C117.172 45.162 117.64 44.502 118.288 43.998C118.936 43.482 119.776 43.224 120.808 43.224Z"
                                    fill="black" />
                            </svg>