<svg width="51" height="34" viewBox="0 0 51 34" fill="none"
                        xmlns="http://www.w3.org/2000/svg">
                        <path
                            d="M0.0712891 26.2724C4.28819 25.5223 8.42944 24.6966 12.5959 24.0725C18.8677 23.1397 24.7108 20.839 30.6485 18.7841C34.0081 17.6243 37.5191 16.7229 41.0363 16.2754C43.5324 15.9539 46.1672 16.4771 48.7074 16.8301C50.3148 17.057 50.34 17.3154 50.0059 19.1182C44.5851 17.5928 39.1895 17.8638 33.8254 19.4648C39.2462 18.5698 44.6481 18.0277 49.9492 20.2528C49.2243 23.7007 47.4972 26.3985 44.8876 28.5164C41.2002 31.5041 36.977 33.3195 32.2432 33.5779C26.148 33.912 21.6474 31.0125 18.3823 26.0392C17.9033 25.308 17.4179 25.037 16.5733 25.0748C13.2325 25.2135 10.0494 25.9446 6.97336 27.2557C5.59294 27.8482 4.16211 28.384 2.69975 28.7055C0.884402 29.1278 0.0838956 28.321 0.0712891 26.2724Z"
                            fill="#F54748" />
                        <path
                            d="M22.4732 20.3155C21.9311 18.601 21.5088 16.2184 22.7127 14.34C23.1476 13.6592 23.5132 13.4827 23.9103 12.9091C24.6856 11.7745 25.1521 9.68814 23.4313 5.50276C24.0238 5.92508 24.8054 6.60583 25.3411 7.65218C25.9526 8.8435 25.8706 9.76377 26.0597 10.7597C26.2803 11.9384 26.9422 13.5395 28.9277 15.2981C28.7197 14.6551 28.4991 13.7601 28.4487 12.6696C28.4045 11.598 28.5369 10.6904 28.6882 10.0411C28.9151 10.703 29.2807 11.5476 29.8858 12.4301C30.2892 13.0163 30.7052 13.489 31.0834 13.8609C30.5603 13.0919 29.8669 11.8817 29.4131 10.2743C29.0664 9.04521 28.6882 6.99033 29.1736 4.53835C29.5896 2.43936 30.472 0.895067 31.0834 0C31.0393 0.769001 31.0582 2.23766 31.802 3.81979C32.9429 6.25916 35.023 7.33702 35.6218 7.63958C37.122 8.39597 37.4309 7.98626 40.3997 8.8372C42.7193 9.49905 43.8791 9.83312 44.9381 10.7471C45.5432 11.264 46.9488 12.6885 47.327 15.7645C45.9655 15.5376 44.125 15.3359 41.9503 15.4052C39.5173 15.4809 37.6893 15.8591 36.4538 16.1238C34.5629 16.5272 33.0438 17.0315 30.0056 18.0337C28.2407 18.6199 26.98 19.08 24.7486 19.7041C23.7968 19.9814 23.0089 20.1831 22.4732 20.3155Z"
                            fill="#FDC55E" />
                        <path
                            d="M37.393 15.6889C37.4245 15.7897 38.8113 15.235 40.7401 14.9703C43.0345 14.6551 45.02 14.8947 46.4761 15.2098C46.4887 14.1635 46.1924 13.4386 45.997 13.0604C45.4865 12.0582 44.6985 11.5035 43.8476 10.911C43.1857 10.4445 42.587 10.142 42.1772 9.95288C42.7319 10.3878 43.419 11.0118 44.0871 11.8628C44.7805 12.7452 45.228 13.5899 45.518 14.2517C44.5536 14.1004 43.129 13.9807 41.4587 14.2517C39.1958 14.6299 37.3552 15.5754 37.393 15.6889Z"
                            fill="white" />
                    </svg>