 <svg  width="103" viewBox="0 0 103 21"
                        fill="none" xmlns="http://www.w3.org/2000/svg">
                        <path
                            d="M7.866 3.896C8.622 3.896 9.24 4.052 9.72 4.364C10.2 4.676 10.44 5.09 10.44 5.606C10.44 6.122 10.224 6.638 9.792 7.154C9.372 7.67 8.82 8.102 8.136 8.45C7.464 8.798 6.774 8.99 6.066 9.026L5.814 8.558C6.438 8.402 6.966 8.096 7.398 7.64C7.842 7.172 8.064 6.692 8.064 6.2C8.064 5.816 7.944 5.51 7.704 5.282C7.476 5.054 7.164 4.94 6.768 4.94C6.072 4.94 5.442 5.21 4.878 5.75C4.326 6.278 3.888 7.01 3.564 7.946C3.252 8.87 3.096 9.914 3.096 11.078C3.096 12.458 3.312 13.55 3.744 14.354C4.188 15.158 4.812 15.56 5.616 15.56C6.108 15.56 6.582 15.374 7.038 15.002C7.494 14.618 7.866 14.12 8.154 13.508C8.442 12.896 8.592 12.266 8.604 11.618L10.854 10.916V18.242L8.658 18.98V13.814H8.55C8.25 14.858 7.74 15.68 7.02 16.28C6.3 16.868 5.484 17.162 4.572 17.162C3.792 17.162 3.102 16.964 2.502 16.568C1.914 16.16 1.452 15.596 1.116 14.876C0.792 14.144 0.63 13.31 0.63 12.374C0.63 10.814 0.948 9.392 1.584 8.108C2.232 6.812 3.108 5.786 4.212 5.03C5.316 4.274 6.534 3.896 7.866 3.896ZM17.2125 8.216C16.4205 8.78 15.7965 9.422 15.3405 10.142C14.8965 10.85 14.6745 11.684 14.6745 12.644C14.6745 13.172 14.7765 13.706 14.9805 14.246C15.1845 14.786 15.4845 15.236 15.8805 15.596C16.2765 15.944 16.7505 16.118 17.3025 16.118C17.9985 16.118 18.5565 15.866 18.9765 15.362C19.4085 14.858 19.6245 14.234 19.6245 13.49C19.6245 12.926 19.4745 12.356 19.1745 11.78C18.8865 11.192 18.4965 10.7 18.0045 10.304C17.5125 9.896 16.9845 9.668 16.4205 9.62C16.6725 9.344 16.9425 9.092 17.2305 8.864C17.5305 8.636 17.9025 8.36 18.3465 8.036C19.2105 8.324 19.8945 8.858 20.3985 9.638C20.9145 10.418 21.1725 11.276 21.1725 12.212C21.1725 13.04 20.9865 13.844 20.6145 14.624C20.2545 15.404 19.7265 16.04 19.0305 16.532C18.3465 17.012 17.5485 17.252 16.6365 17.252C15.8805 17.252 15.1845 17.078 14.5485 16.73C13.9245 16.37 13.4265 15.884 13.0545 15.272C12.6825 14.648 12.4965 13.964 12.4965 13.22C12.4965 11.936 12.8985 10.808 13.7025 9.836C14.5185 8.864 15.5745 8.186 16.8705 7.802L17.2125 8.216ZM25.5216 15.344C25.5216 15.5 25.5576 15.638 25.6296 15.758C25.7136 15.878 25.8396 15.938 26.0076 15.938C26.1756 15.938 26.3436 15.872 26.5116 15.74C26.6916 15.608 26.8356 15.464 26.9436 15.308L27.2676 15.65C27.0636 16.058 26.7636 16.406 26.3676 16.694C25.9836 16.982 25.5696 17.126 25.1256 17.126C23.9616 17.126 23.3796 16.496 23.3796 15.236V1.124L25.5216 0.349999V15.344ZM36.3298 15.272C36.3298 15.44 36.3658 15.59 36.4378 15.722C36.5218 15.842 36.6418 15.902 36.7978 15.902C36.9538 15.902 37.1098 15.836 37.2658 15.704C37.4338 15.572 37.5598 15.428 37.6438 15.272L38.0398 15.614C37.8238 16.034 37.5238 16.394 37.1398 16.694C36.7678 16.982 36.3658 17.126 35.9338 17.126C35.3098 17.126 34.8598 16.958 34.5838 16.622C34.3078 16.274 34.1758 15.746 34.1878 15.038H34.0978C33.8218 15.662 33.4618 16.184 33.0178 16.604C32.5738 17.012 32.0398 17.216 31.4158 17.216C30.7558 17.216 30.1918 17.048 29.7238 16.712C29.2558 16.376 28.9018 15.926 28.6618 15.362C28.4218 14.786 28.3018 14.15 28.3018 13.454C28.3018 12.566 28.4818 11.696 28.8418 10.844C29.2138 9.98 29.7478 9.272 30.4438 8.72C31.1398 8.168 31.9498 7.892 32.8738 7.892C33.3418 7.892 33.7678 8.006 34.1518 8.234V1.124L36.3298 0.368V15.272ZM32.8378 9.044C32.2618 9.044 31.7818 9.242 31.3978 9.638C31.0258 10.022 30.7498 10.502 30.5698 11.078C30.3898 11.642 30.2998 12.2 30.2998 12.752C30.2998 13.496 30.4438 14.204 30.7318 14.876C31.0318 15.548 31.4998 15.884 32.1358 15.884C32.9038 15.884 33.4318 15.494 33.7198 14.714C34.0078 13.922 34.1518 13.064 34.1518 12.14V9.638C33.7558 9.242 33.3178 9.044 32.8378 9.044ZM44.2804 7.838C44.9764 7.838 45.5584 8.018 46.0264 8.378C46.4944 8.726 46.7284 9.236 46.7284 9.908C46.7284 10.448 46.4344 11.054 45.8464 11.726C45.2704 12.386 44.5804 13.004 43.7764 13.58C42.9844 14.144 42.3064 14.552 41.7424 14.804C42.2464 15.608 42.9844 16.01 43.9564 16.01C44.4964 16.01 45.0364 15.86 45.5764 15.56C46.1284 15.248 46.5964 14.84 46.9804 14.336L47.3404 14.768C46.7164 15.548 46.0564 16.154 45.3604 16.586C44.6764 17.006 43.8604 17.216 42.9124 17.216C42.1444 17.216 41.4544 17.042 40.8424 16.694C40.2424 16.346 39.7684 15.872 39.4204 15.272C39.0844 14.66 38.9164 13.976 38.9164 13.22C38.9164 12.308 39.1624 11.438 39.6544 10.61C40.1584 9.77 40.8244 9.098 41.6524 8.594C42.4804 8.09 43.3564 7.838 44.2804 7.838ZM43.2544 9.008C42.7984 9.008 42.3904 9.176 42.0304 9.512C41.6704 9.836 41.3884 10.256 41.1844 10.772C40.9804 11.288 40.8784 11.822 40.8784 12.374C40.8784 13.094 41.0344 13.712 41.3464 14.228C41.7904 13.976 42.2584 13.628 42.7504 13.184C43.2544 12.728 43.6744 12.242 44.0104 11.726C44.3464 11.21 44.5144 10.742 44.5144 10.322C44.5144 9.902 44.4004 9.578 44.1724 9.35C43.9564 9.122 43.6504 9.008 43.2544 9.008ZM55.6969 7.838C56.1169 7.838 56.4229 7.964 56.6149 8.216C56.8069 8.456 56.9269 8.744 56.9749 9.08C57.0229 9.404 57.0469 9.824 57.0469 10.34V15.344C57.0469 15.488 57.0889 15.626 57.1729 15.758C57.2689 15.878 57.3829 15.938 57.5149 15.938C57.6949 15.938 57.8509 15.884 57.9829 15.776C58.1269 15.656 58.2769 15.5 58.4329 15.308L58.7389 15.65C58.5229 16.07 58.2229 16.424 57.8389 16.712C57.4669 16.988 57.0649 17.126 56.6329 17.126C56.0569 17.126 55.6249 16.964 55.3369 16.64C55.0489 16.304 54.9049 15.836 54.9049 15.236V10.52C54.9049 10.352 54.8869 10.208 54.8509 10.088C54.8149 9.968 54.7309 9.908 54.5989 9.908C54.1909 9.908 53.7769 10.346 53.3569 11.222C52.9369 12.086 52.5829 13.082 52.2949 14.21C52.0069 15.338 51.8629 16.19 51.8629 16.766L49.7569 17.234V9.674C49.7569 9.494 49.7149 9.344 49.6309 9.224C49.5469 9.104 49.4269 9.044 49.2709 9.044C49.1029 9.044 48.9349 9.116 48.7669 9.26C48.6109 9.392 48.4789 9.548 48.3709 9.728L48.0469 9.368C48.2269 8.948 48.5089 8.588 48.8929 8.288C49.2769 7.988 49.6909 7.838 50.1349 7.838C50.7349 7.838 51.1729 8.006 51.4489 8.342C51.7249 8.666 51.8629 9.122 51.8629 9.71V13.184H51.9349C52.2589 11.852 52.7389 10.628 53.3749 9.512C54.0229 8.396 54.7969 7.838 55.6969 7.838ZM70.8526 3.86C71.6566 3.86 72.3046 4.076 72.7966 4.508C73.2886 4.94 73.5346 5.51 73.5346 6.218C73.5346 6.794 73.3726 7.376 73.0486 7.964C72.7246 8.54 72.2866 9.05 71.7346 9.494C71.1946 9.938 70.5946 10.25 69.9346 10.43L69.6646 9.962C70.1806 9.722 70.5946 9.356 70.9066 8.864C71.2306 8.36 71.3926 7.82 71.3926 7.244C71.3926 6.56 71.2066 6.014 70.8346 5.606C70.4626 5.186 69.9766 4.976 69.3766 4.976C68.7406 4.976 68.1406 5.234 67.5766 5.75C67.0246 6.254 66.5806 6.938 66.2446 7.802C65.9206 8.654 65.7586 9.572 65.7586 10.556C65.7586 11.564 65.9146 12.458 66.2266 13.238C66.5386 14.006 66.9706 14.606 67.5226 15.038C68.0866 15.47 68.7286 15.686 69.4486 15.686C69.9646 15.686 70.4806 15.56 70.9966 15.308C71.5246 15.044 72.0346 14.666 72.5266 14.174L73.0126 14.624C72.4486 15.356 71.7466 15.968 70.9066 16.46C70.0786 16.94 69.2086 17.18 68.2966 17.18C67.3126 17.18 66.4486 16.952 65.7046 16.496C64.9726 16.04 64.4086 15.41 64.0126 14.606C63.6166 13.79 63.4186 12.86 63.4186 11.816C63.4186 10.352 63.7486 9.014 64.4086 7.802C65.0806 6.578 65.9806 5.618 67.1086 4.922C68.2486 4.214 69.4966 3.86 70.8526 3.86ZM77.3758 12.536H77.4478C77.7118 11.372 78.1438 10.298 78.7438 9.314C79.3438 8.33 80.0818 7.838 80.9578 7.838C81.3658 7.838 81.6658 7.964 81.8578 8.216C82.0618 8.468 82.1878 8.768 82.2358 9.116C82.2838 9.452 82.3078 9.866 82.3078 10.358V15.344C82.3078 15.488 82.3498 15.626 82.4338 15.758C82.5298 15.878 82.6618 15.938 82.8298 15.938C83.1178 15.938 83.4178 15.728 83.7298 15.308L84.0358 15.65C83.8318 16.058 83.5378 16.406 83.1538 16.694C82.7698 16.982 82.3498 17.126 81.8938 17.126C80.7538 17.126 80.1838 16.496 80.1838 15.236V10.52C80.1838 10.364 80.1538 10.226 80.0938 10.106C80.0458 9.974 79.9558 9.908 79.8238 9.908C79.3198 9.908 78.8818 10.328 78.5098 11.168C78.1498 12.008 77.8678 12.98 77.6638 14.084C77.4718 15.188 77.3758 16.082 77.3758 16.766L75.2158 17.234V1.124L77.3758 0.368V12.536ZM90.3 7.838C90.996 7.838 91.578 8.018 92.046 8.378C92.514 8.726 92.748 9.236 92.748 9.908C92.748 10.448 92.454 11.054 91.866 11.726C91.29 12.386 90.6 13.004 89.796 13.58C89.004 14.144 88.326 14.552 87.762 14.804C88.266 15.608 89.004 16.01 89.976 16.01C90.516 16.01 91.056 15.86 91.596 15.56C92.148 15.248 92.616 14.84 93 14.336L93.36 14.768C92.736 15.548 92.076 16.154 91.38 16.586C90.696 17.006 89.88 17.216 88.932 17.216C88.164 17.216 87.474 17.042 86.862 16.694C86.262 16.346 85.788 15.872 85.44 15.272C85.104 14.66 84.936 13.976 84.936 13.22C84.936 12.308 85.182 11.438 85.674 10.61C86.178 9.77 86.844 9.098 87.672 8.594C88.5 8.09 89.376 7.838 90.3 7.838ZM89.274 9.008C88.818 9.008 88.41 9.176 88.05 9.512C87.69 9.836 87.408 10.256 87.204 10.772C87 11.288 86.898 11.822 86.898 12.374C86.898 13.094 87.054 13.712 87.366 14.228C87.81 13.976 88.278 13.628 88.77 13.184C89.274 12.728 89.694 12.242 90.03 11.726C90.366 11.21 90.534 10.742 90.534 10.322C90.534 9.902 90.42 9.578 90.192 9.35C89.976 9.122 89.67 9.008 89.274 9.008ZM99.8085 0.223999C100.276 0.223999 100.768 0.367999 101.284 0.655999C101.8 0.931999 102.208 1.304 102.508 1.772L100.834 2.69C100.678 2.21 100.45 1.82 100.15 1.52C99.8625 1.208 99.5145 1.052 99.1065 1.052C98.5665 1.052 98.1825 1.256 97.9545 1.664C97.7385 2.072 97.6305 2.546 97.6305 3.086V8H100.924L100.366 9.188H97.6305V19.376L95.4705 20.276V9.188H94.2465L94.7505 8H95.4705V5.57C95.4705 4.646 95.6085 3.782 95.8845 2.978C96.1725 2.162 96.6405 1.502 97.2885 0.997999C97.9365 0.481999 98.7765 0.223999 99.8085 0.223999Z"
                            fill="#263238" />
                    </svg>